<?xml version="1.0" encoding="UTF-8"?>
<svg width="50px" height="50px" viewBox="0 0 160 30" version="1.1" xmlns="http://www.w3.org/2000/svg" xmlns:xlink="http://www.w3.org/1999/xlink">
    <title>logo-mobile</title>
    <g id="Page-1" stroke="none" stroke-width="1" fill="none" fill-rule="evenodd">
        <g id="logo-mobile">
            <path id="MP" fill="#1684a0" d="M 90.7 0 L 90.7 2 Q 88.06 2.088 86.543 2.602 A 5.965 5.965 0 0 0 86.15 2.75 A 3.404 3.404 0 0 0 84.222 4.78 A 4.721 4.721 0 0 0 84.1 5.15 A 9.552 9.552 0 0 0 83.858 6.289 Q 83.663 7.537 83.615 9.362 A 47.495 47.495 0 0 0 83.6 10.6 L 83.6 60.2 Q 83.6 63.194 83.98 64.942 A 8.265 8.265 0 0 0 84.15 65.6 A 4.487 4.487 0 0 0 84.654 66.717 A 3.216 3.216 0 0 0 86.2 68 Q 87.7 68.6 90.7 68.8 L 90.7 70.8 Q 87.754 70.61 83.274 70.555 A 267.652 267.652 0 0 0 82.8 70.55 Q 78 70.5 73 70.5 Q 67.6 70.5 62.85 70.55 Q 58.601 70.595 55.832 70.759 A 67.316 67.316 0 0 0 55.2 70.8 L 55.2 68.8 Q 58.147 68.627 59.854 68.153 A 8.723 8.723 0 0 0 60.35 68 A 3.554 3.554 0 0 0 62.532 66.031 A 4.55 4.55 0 0 0 62.7 65.6 Q 63.206 64.082 63.285 61.283 A 38.321 38.321 0 0 0 63.3 60.2 L 63.3 6.7 L 64.3 6.5 L 39.2 70.7 L 37.6 70.7 L 9.4 6.5 L 9.4 51.2 Q 9.4 56.722 9.774 60.105 A 31.171 31.171 0 0 0 9.95 61.45 A 10.951 10.951 0 0 0 10.45 63.473 Q 11.172 65.484 12.65 66.55 Q 14.592 67.95 18.615 68.657 A 34.48 34.48 0 0 0 19.5 68.8 L 19.5 70.8 A 39.082 39.082 0 0 0 18.133 70.69 Q 16.5 70.584 14.3 70.55 Q 11.1 70.5 8.3 70.5 Q 6.1 70.5 3.8 70.55 Q 2.255 70.584 1.071 70.685 A 22.91 22.91 0 0 0 0 70.8 L 0 68.8 Q 2.034 68.341 3.38 67.558 A 6.306 6.306 0 0 0 4.6 66.65 A 5.415 5.415 0 0 0 5.649 65.191 Q 6.006 64.489 6.257 63.6 A 13.664 13.664 0 0 0 6.6 62 A 33.245 33.245 0 0 0 6.864 59.766 Q 7.067 57.432 7.095 54.26 A 117.792 117.792 0 0 0 7.1 53.2 L 7.1 10.6 A 44.606 44.606 0 0 0 7.069 8.872 Q 7.001 7.13 6.786 5.961 A 8.677 8.677 0 0 0 6.6 5.15 A 4.061 4.061 0 0 0 6.049 3.951 A 3.349 3.349 0 0 0 4.55 2.75 A 7.209 7.209 0 0 0 3.44 2.397 Q 2.256 2.115 0.567 2.024 A 28.099 28.099 0 0 0 0 2 L 0 0 Q 1.425 0.095 3.573 0.19 A 297.194 297.194 0 0 0 3.8 0.2 Q 6.1 0.3 8.3 0.3 Q 14.1 0.3 19.4 0.2 Q 24.7 0.1 29 0 L 48.8 44.6 L 45.8 47.9 L 64.3 0.3 L 68.6 0.3 L 73 0.3 Q 78 0.3 82.8 0.2 Q 87.361 0.105 90.387 0.01 A 365.587 365.587 0 0 0 90.7 0 Z M 96.3 2 L 96.3 0 Q 98.894 0.089 102.969 0.179 A 1089.322 1089.322 0 0 0 103.95 0.2 Q 108.7 0.3 113.5 0.3 Q 118.5 0.3 123.1 0.2 Q 127.336 0.108 129.283 0.101 A 85.026 85.026 0 0 1 129.6 0.1 Q 144.172 0.1 151.621 5.155 A 19.391 19.391 0 0 1 152.25 5.6 A 19.558 19.558 0 0 1 156.925 10.372 A 16.473 16.473 0 0 1 159.7 19.8 A 19.402 19.402 0 0 1 159.121 24.407 A 24.977 24.977 0 0 1 158.2 27.35 A 17.947 17.947 0 0 1 155.327 32.276 A 23.105 23.105 0 0 1 153.1 34.65 A 21.146 21.146 0 0 1 149.218 37.473 Q 147.279 38.588 144.911 39.502 A 40.121 40.121 0 0 1 143.25 40.1 A 35.632 35.632 0 0 1 137.856 41.42 Q 135.049 41.895 131.78 42.081 A 77.349 77.349 0 0 1 127.4 42.2 L 116.8 42.2 L 116.8 40.2 L 126.4 40.2 A 15.444 15.444 0 0 0 129.348 39.936 Q 132.328 39.356 134.15 37.5 A 12.861 12.861 0 0 0 136.872 33.284 A 17.35 17.35 0 0 0 137.75 30.4 A 42.176 42.176 0 0 0 138.588 24.324 A 51.063 51.063 0 0 0 138.7 20.9 A 67.346 67.346 0 0 0 138.53 15.936 Q 138.176 11.165 137.085 8.039 A 15.473 15.473 0 0 0 136.55 6.7 A 8.554 8.554 0 0 0 134.674 4 Q 132.988 2.406 130.45 2.083 A 10.662 10.662 0 0 0 129.1 2 A 10.554 10.554 0 0 0 127.638 2.093 Q 125.936 2.332 125.098 3.183 A 2.643 2.643 0 0 0 124.7 3.7 Q 123.773 5.277 123.705 9.864 A 50.214 50.214 0 0 0 123.7 10.6 L 123.7 59.2 A 31.617 31.617 0 0 0 123.767 61.34 Q 123.939 63.863 124.55 65.3 Q 125.4 67.3 127.8 67.9 A 15.433 15.433 0 0 0 129.419 68.203 Q 131.217 68.452 133.777 68.492 A 64.898 64.898 0 0 0 134.8 68.5 L 134.8 70.8 Q 131.759 70.711 127.037 70.621 A 1491.354 1491.354 0 0 0 125.9 70.6 Q 120.4 70.5 114.2 70.5 Q 109.6 70.5 105 70.6 Q 100.4 70.7 96.3 70.8 L 96.3 68.8 Q 98.878 68.634 100.349 68.191 A 6.635 6.635 0 0 0 100.9 68 A 3.18 3.18 0 0 0 102.667 66.257 A 4.75 4.75 0 0 0 102.9 65.6 A 10.232 10.232 0 0 0 103.142 64.445 Q 103.339 63.176 103.386 61.362 A 45.553 45.553 0 0 0 103.4 60.2 L 103.4 10.6 Q 103.4 7.668 103.086 5.961 A 8.677 8.677 0 0 0 102.9 5.15 A 4.061 4.061 0 0 0 102.349 3.951 A 3.349 3.349 0 0 0 100.85 2.75 A 7.209 7.209 0 0 0 99.74 2.397 Q 98.556 2.115 96.867 2.024 A 28.099 28.099 0 0 0 96.3 2 Z"></path>
        </g>
    </g>
</svg>