<?xml version="1.0" encoding="UTF-8"?>
<svg width="240px" height="64px" viewBox="0 0 510 80" version="1.1" xmlns="http://www.w3.org/2000/svg" xmlns:xlink="http://www.w3.org/1999/xlink">
    <title>logo</title>
    <g id="Page-1" stroke="none" stroke-width="1" fill="none" fill-rule="evenodd">
        <g id="logo" transform="translate(2.000000, 0.000000)" fill-rule="nonzero">
            <path id="MesePinty" fill="#1684a0" d="M 90.7 7.4 L 90.7 9.4 Q 88.06 9.488 86.543 10.002 A 5.965 5.965 0 0 0 86.15 10.15 A 3.404 3.404 0 0 0 84.222 12.181 A 4.721 4.721 0 0 0 84.1 12.55 A 9.552 9.552 0 0 0 83.858 13.689 Q 83.663 14.938 83.615 16.762 A 47.495 47.495 0 0 0 83.6 18 L 83.6 67.6 Q 83.6 70.594 83.98 72.343 A 8.265 8.265 0 0 0 84.15 73 A 4.487 4.487 0 0 0 84.654 74.118 A 3.216 3.216 0 0 0 86.2 75.4 Q 87.7 76 90.7 76.2 L 90.7 78.2 Q 87.754 78.01 83.274 77.956 A 267.652 267.652 0 0 0 82.8 77.95 Q 78 77.9 73 77.9 Q 67.6 77.9 62.85 77.95 Q 58.601 77.995 55.832 78.16 A 67.316 67.316 0 0 0 55.2 78.2 L 55.2 76.2 Q 58.147 76.027 59.854 75.553 A 8.723 8.723 0 0 0 60.35 75.4 A 3.554 3.554 0 0 0 62.532 73.432 A 4.55 4.55 0 0 0 62.7 73 Q 63.206 71.482 63.285 68.683 A 38.321 38.321 0 0 0 63.3 67.6 L 63.3 14.1 L 64.3 13.9 L 39.2 78.1 L 37.6 78.1 L 9.4 13.9 L 9.4 58.6 Q 9.4 64.123 9.774 67.505 A 31.171 31.171 0 0 0 9.95 68.85 A 10.951 10.951 0 0 0 10.45 70.874 Q 11.172 72.885 12.65 73.95 Q 14.592 75.35 18.615 76.057 A 34.48 34.48 0 0 0 19.5 76.2 L 19.5 78.2 A 39.082 39.082 0 0 0 18.133 78.09 Q 16.5 77.985 14.3 77.95 Q 11.1 77.9 8.3 77.9 Q 6.1 77.9 3.8 77.95 Q 2.255 77.984 1.071 78.085 A 22.91 22.91 0 0 0 0 78.2 L 0 76.2 Q 2.034 75.741 3.38 74.959 A 6.306 6.306 0 0 0 4.6 74.05 A 5.415 5.415 0 0 0 5.649 72.592 Q 6.006 71.889 6.257 71 A 13.664 13.664 0 0 0 6.6 69.4 A 33.245 33.245 0 0 0 6.864 67.166 Q 7.067 64.832 7.095 61.661 A 117.792 117.792 0 0 0 7.1 60.6 L 7.1 18 A 44.606 44.606 0 0 0 7.069 16.272 Q 7.001 14.53 6.786 13.361 A 8.677 8.677 0 0 0 6.6 12.55 A 4.061 4.061 0 0 0 6.049 11.351 A 3.349 3.349 0 0 0 4.55 10.15 A 7.209 7.209 0 0 0 3.44 9.798 Q 2.256 9.515 0.567 9.425 A 28.099 28.099 0 0 0 0 9.4 L 0 7.4 Q 1.425 7.495 3.573 7.59 A 297.194 297.194 0 0 0 3.8 7.6 Q 6.1 7.7 8.3 7.7 Q 14.1 7.7 19.4 7.6 Q 24.7 7.5 29 7.4 L 48.8 52 L 45.8 55.3 L 64.3 7.7 L 68.6 7.7 L 73 7.7 Q 78 7.7 82.8 7.6 Q 87.361 7.505 90.387 7.41 A 365.587 365.587 0 0 0 90.7 7.4 Z M 240.8 9.4 L 240.8 7.4 Q 243.394 7.49 247.469 7.579 A 1089.322 1089.322 0 0 0 248.45 7.6 Q 253.2 7.7 258 7.7 Q 263 7.7 267.6 7.6 Q 271.836 7.508 273.783 7.501 A 85.026 85.026 0 0 1 274.1 7.5 Q 288.672 7.5 296.121 12.555 A 19.391 19.391 0 0 1 296.75 13 A 19.558 19.558 0 0 1 301.425 17.772 A 16.473 16.473 0 0 1 304.2 27.2 A 19.402 19.402 0 0 1 303.621 31.807 A 24.977 24.977 0 0 1 302.7 34.75 A 17.947 17.947 0 0 1 299.827 39.676 A 23.105 23.105 0 0 1 297.6 42.05 A 21.146 21.146 0 0 1 293.718 44.873 Q 291.779 45.989 289.411 46.902 A 40.121 40.121 0 0 1 287.75 47.5 A 35.632 35.632 0 0 1 282.356 48.82 Q 279.549 49.296 276.28 49.481 A 77.349 77.349 0 0 1 271.9 49.6 L 261.3 49.6 L 261.3 47.6 L 270.9 47.6 A 15.444 15.444 0 0 0 273.848 47.337 Q 276.828 46.757 278.65 44.9 A 12.861 12.861 0 0 0 281.372 40.684 A 17.35 17.35 0 0 0 282.25 37.8 A 42.176 42.176 0 0 0 283.088 31.724 A 51.063 51.063 0 0 0 283.2 28.3 A 67.346 67.346 0 0 0 283.03 23.336 Q 282.676 18.565 281.585 15.439 A 15.473 15.473 0 0 0 281.05 14.1 A 8.554 8.554 0 0 0 279.174 11.4 Q 277.488 9.807 274.95 9.483 A 10.662 10.662 0 0 0 273.6 9.4 A 10.554 10.554 0 0 0 272.138 9.494 Q 270.436 9.733 269.598 10.583 A 2.643 2.643 0 0 0 269.2 11.1 Q 268.273 12.677 268.205 17.265 A 50.214 50.214 0 0 0 268.2 18 L 268.2 66.6 A 31.617 31.617 0 0 0 268.267 68.74 Q 268.439 71.263 269.05 72.7 Q 269.9 74.7 272.3 75.3 A 15.433 15.433 0 0 0 273.919 75.604 Q 275.717 75.852 278.277 75.892 A 64.898 64.898 0 0 0 279.3 75.9 L 279.3 78.2 Q 276.259 78.111 271.537 78.021 A 1491.354 1491.354 0 0 0 270.4 78 Q 264.9 77.9 258.7 77.9 Q 254.1 77.9 249.5 78 Q 244.9 78.1 240.8 78.2 L 240.8 76.2 Q 243.378 76.034 244.849 75.591 A 6.635 6.635 0 0 0 245.4 75.4 A 3.18 3.18 0 0 0 247.167 73.658 A 4.75 4.75 0 0 0 247.4 73 A 10.232 10.232 0 0 0 247.642 71.845 Q 247.839 70.576 247.886 68.762 A 45.553 45.553 0 0 0 247.9 67.6 L 247.9 18 Q 247.9 15.069 247.586 13.361 A 8.677 8.677 0 0 0 247.4 12.55 A 4.061 4.061 0 0 0 246.849 11.351 A 3.349 3.349 0 0 0 245.35 10.15 A 7.209 7.209 0 0 0 244.24 9.798 Q 243.056 9.515 241.367 9.425 A 28.099 28.099 0 0 0 240.8 9.4 Z M 394.6 41.8 L 394.6 68.9 A 22.155 22.155 0 0 0 394.673 70.776 Q 394.903 73.464 395.85 74.6 Q 396.77 75.705 398.694 75.996 A 10.091 10.091 0 0 0 400.2 76.1 L 400.2 78.2 Q 398.204 78.1 394.168 77.951 A 5393.8 5393.8 0 0 1 394.15 77.95 Q 390.1 77.8 386.2 77.8 Q 382 77.8 378 77.95 Q 374.938 78.065 373.047 78.151 A 223.22 223.22 0 0 0 372 78.2 L 372 76.1 Q 374.6 76.1 375.6 74.6 Q 376.6 73.1 376.6 68.9 L 376.6 36.4 A 14.586 14.586 0 0 0 376.53 34.927 Q 376.413 33.777 376.1 32.9 A 4.853 4.853 0 0 0 375.569 31.826 A 3.673 3.673 0 0 0 374.55 30.8 Q 373.718 30.246 372.416 30.131 A 8.127 8.127 0 0 0 371.7 30.1 Q 369.9 30.1 368.25 31 Q 366.6 31.9 365.55 33.55 A 6.746 6.746 0 0 0 364.509 36.91 A 8.157 8.157 0 0 0 364.5 37.3 L 364.5 68.9 A 26.353 26.353 0 0 0 364.562 70.776 Q 364.687 72.525 365.068 73.618 A 4.018 4.018 0 0 0 365.55 74.6 Q 366.486 75.937 368.572 76.082 A 7.582 7.582 0 0 0 369.1 76.1 L 369.1 78.2 Q 367.645 78.124 365.135 78.018 A 1000.905 1000.905 0 0 0 363.5 77.95 Q 359.8 77.8 355.9 77.8 Q 351.7 77.8 347.4 77.95 Q 343.1 78.1 340.9 78.2 L 340.9 76.1 Q 342.648 76.1 343.808 75.623 A 3.633 3.633 0 0 0 345.25 74.6 Q 346.5 73.1 346.5 68.9 L 346.5 37.2 Q 346.5 32.7 345.3 30.55 A 3.956 3.956 0 0 0 342.785 28.632 Q 342.058 28.43 341.167 28.404 A 9.156 9.156 0 0 0 340.9 28.4 L 340.9 26.3 A 67.314 67.314 0 0 0 346.347 26.596 A 60.756 60.756 0 0 0 347.1 26.6 Q 352.1 26.6 356.45 26.25 A 83.552 83.552 0 0 0 361.386 25.711 A 66.919 66.919 0 0 0 364.5 25.2 L 364.5 32.4 A 14.336 14.336 0 0 1 368.145 28.279 A 13.536 13.536 0 0 1 370.95 26.65 A 20.722 20.722 0 0 1 375.915 25.238 A 28.395 28.395 0 0 1 380.4 24.9 A 30.019 30.019 0 0 1 383.085 25.013 Q 384.413 25.132 385.526 25.379 A 11.727 11.727 0 0 1 387.65 26.05 A 13.828 13.828 0 0 1 389.53 27.033 Q 390.518 27.656 391.244 28.395 A 7.692 7.692 0 0 1 391.7 28.9 Q 393.031 30.497 393.732 33.039 A 17.096 17.096 0 0 1 393.9 33.7 Q 394.6 36.7 394.6 41.8 Z M 181.8 25 L 183.8 25 A 114.467 114.467 0 0 0 183.664 27.351 Q 183.563 29.457 183.5 32.05 A 264.464 264.464 0 0 0 183.456 34.291 Q 183.408 37.393 183.401 41.595 A 868.829 868.829 0 0 0 183.4 43 L 181.4 43 Q 181 39.3 179.65 35.7 Q 178.3 32.1 175.75 29.7 A 8.675 8.675 0 0 0 171.169 27.47 A 12.139 12.139 0 0 0 169.1 27.3 A 6.882 6.882 0 0 0 166.965 27.619 A 5.794 5.794 0 0 0 164.9 28.8 Q 163.2 30.3 163.2 32.9 Q 163.2 35.9 165 38.25 A 21.95 21.95 0 0 0 167.341 40.831 A 28.696 28.696 0 0 0 169.6 42.75 Q 172.4 44.9 175.2 47.3 A 76.968 76.968 0 0 1 178.466 50.081 A 60.518 60.518 0 0 1 180.7 52.2 A 20.83 20.83 0 0 1 184.246 56.876 A 19.499 19.499 0 0 1 184.55 57.45 Q 186 60.3 186 64.2 Q 186 68.7 183.25 72.2 A 17.496 17.496 0 0 1 177.854 76.723 A 21.502 21.502 0 0 1 175.95 77.65 A 24.182 24.182 0 0 1 168.877 79.445 A 29.807 29.807 0 0 1 165.8 79.6 Q 162.67 79.6 160.259 79 A 15.694 15.694 0 0 1 159.7 78.85 A 23.439 23.439 0 0 1 157.899 78.256 Q 156.503 77.727 155.5 77.1 A 47.726 47.726 0 0 0 154.363 76.549 Q 153.916 76.34 153.513 76.166 A 23.006 23.006 0 0 0 152.75 75.85 A 6.628 6.628 0 0 0 151.402 75.475 A 5.593 5.593 0 0 0 150.5 75.4 A 1.785 1.785 0 0 0 149.267 75.897 Q 149.027 76.115 148.814 76.43 A 3.793 3.793 0 0 0 148.8 76.45 A 8.041 8.041 0 0 0 148.026 77.939 A 10.059 10.059 0 0 0 147.7 78.9 L 145.7 78.9 A 138.748 138.748 0 0 0 145.836 76.303 Q 145.938 73.975 146 71.1 A 323.723 323.723 0 0 0 146.044 68.613 Q 146.092 65.165 146.099 60.47 A 1084.4 1084.4 0 0 0 146.1 58.9 L 148.1 58.9 Q 148.7 64.2 150.45 68.3 Q 152.2 72.4 154.95 74.75 Q 157.7 77.1 161.3 77.1 Q 162.9 77.1 164.2 76.5 Q 165.5 75.9 166.3 74.7 A 4.494 4.494 0 0 0 166.912 73.28 Q 167.1 72.522 167.1 71.6 Q 167.1 67.2 164.45 64.2 Q 162.421 61.903 159.601 59.255 A 115.421 115.421 0 0 0 157.8 57.6 Q 154.8 54.8 152.15 52.15 Q 149.5 49.5 147.8 46.35 A 14.27 14.27 0 0 1 146.142 40.501 A 17.135 17.135 0 0 1 146.1 39.3 Q 146.1 34.8 148.75 31.6 A 16.59 16.59 0 0 1 153.836 27.518 A 20.482 20.482 0 0 1 155.7 26.65 A 24.132 24.132 0 0 1 164.747 24.901 A 27.365 27.365 0 0 1 164.9 24.9 A 34.832 34.832 0 0 1 168.549 25.082 Q 170.766 25.316 172.65 25.85 Q 175.304 26.603 176.797 27.262 A 10.541 10.541 0 0 1 177.5 27.6 A 6.086 6.086 0 0 0 178.15 27.942 Q 181.077 29.247 181.8 25 Z M 139.2 47.3 L 107.9 47.3 L 107.7 45.4 L 124.6 45.4 A 79.036 79.036 0 0 0 124.617 43.788 Q 124.617 41.301 124.454 39.017 A 54.98 54.98 0 0 0 124.2 36.35 Q 123.7 32.2 122.6 29.7 Q 121.5 27.2 119.6 27.2 Q 116.9 27.2 115.2 31.45 A 19.106 19.106 0 0 0 114.382 34.135 Q 113.7 37.025 113.311 41.388 A 114.604 114.604 0 0 0 113 46 L 113.4 46.8 Q 113.3 47.8 113.3 48.8 L 113.3 50.9 A 45.244 45.244 0 0 0 113.471 54.973 Q 113.847 59.119 115.05 61.8 A 16.445 16.445 0 0 0 116.295 64.101 Q 117.068 65.278 117.97 66.111 A 7.948 7.948 0 0 0 119.45 67.2 Q 122.1 68.7 124.8 68.7 A 12.166 12.166 0 0 0 125.927 68.644 Q 126.931 68.55 128.15 68.3 Q 130.1 67.9 132.4 66.45 A 13.119 13.119 0 0 0 134.393 64.885 Q 135.266 64.062 136.123 63.007 A 25.5 25.5 0 0 0 136.9 62 L 138.6 62.6 A 27.691 27.691 0 0 1 136.333 67.953 A 34.002 34.002 0 0 1 134.75 70.55 Q 132.1 74.5 127.9 77.05 Q 123.7 79.6 117.7 79.6 A 27.337 27.337 0 0 1 110.149 78.585 A 24.232 24.232 0 0 1 106.05 77 A 17.708 17.708 0 0 1 99.499 71.348 A 23.454 23.454 0 0 1 97.7 68.4 A 24.329 24.329 0 0 1 95.751 63.087 Q 95.104 60.482 94.82 57.394 A 55.84 55.84 0 0 1 94.6 52.3 A 44.425 44.425 0 0 1 95.039 45.859 Q 95.822 40.526 98 36.65 A 22.074 22.074 0 0 1 103.054 30.465 A 20.451 20.451 0 0 1 107.25 27.75 A 28.438 28.438 0 0 1 117.431 25.018 A 34.439 34.439 0 0 1 120.3 24.9 A 24.211 24.211 0 0 1 126.133 25.564 A 16.551 16.551 0 0 1 134.15 30.05 A 14.907 14.907 0 0 1 137.324 35.132 Q 139.081 39.621 139.192 46.374 A 56.079 56.079 0 0 1 139.2 47.3 Z M 236.7 47.3 L 205.4 47.3 L 205.2 45.4 L 222.1 45.4 A 79.036 79.036 0 0 0 222.117 43.788 Q 222.117 41.301 221.954 39.017 A 54.98 54.98 0 0 0 221.7 36.35 Q 221.2 32.2 220.1 29.7 Q 219 27.2 217.1 27.2 Q 214.4 27.2 212.7 31.45 A 19.106 19.106 0 0 0 211.882 34.135 Q 211.2 37.025 210.811 41.388 A 114.604 114.604 0 0 0 210.5 46 L 210.9 46.8 Q 210.8 47.8 210.8 48.8 L 210.8 50.9 A 45.244 45.244 0 0 0 210.971 54.973 Q 211.347 59.119 212.55 61.8 A 16.445 16.445 0 0 0 213.795 64.101 Q 214.568 65.278 215.47 66.111 A 7.948 7.948 0 0 0 216.95 67.2 Q 219.6 68.7 222.3 68.7 A 12.166 12.166 0 0 0 223.427 68.644 Q 224.431 68.55 225.65 68.3 Q 227.6 67.9 229.9 66.45 A 13.119 13.119 0 0 0 231.893 64.885 Q 232.766 64.062 233.623 63.007 A 25.5 25.5 0 0 0 234.4 62 L 236.1 62.6 A 27.691 27.691 0 0 1 233.833 67.953 A 34.002 34.002 0 0 1 232.25 70.55 Q 229.6 74.5 225.4 77.05 Q 221.2 79.6 215.2 79.6 A 27.337 27.337 0 0 1 207.649 78.585 A 24.232 24.232 0 0 1 203.55 77 A 17.708 17.708 0 0 1 196.999 71.348 A 23.454 23.454 0 0 1 195.2 68.4 A 24.329 24.329 0 0 1 193.251 63.087 Q 192.604 60.482 192.32 57.394 A 55.84 55.84 0 0 1 192.1 52.3 A 44.425 44.425 0 0 1 192.539 45.859 Q 193.322 40.526 195.5 36.65 A 22.074 22.074 0 0 1 200.554 30.465 A 20.451 20.451 0 0 1 204.75 27.75 A 28.438 28.438 0 0 1 214.931 25.018 A 34.439 34.439 0 0 1 217.8 24.9 A 24.211 24.211 0 0 1 223.633 25.564 A 16.551 16.551 0 0 1 231.65 30.05 A 14.907 14.907 0 0 1 234.824 35.132 Q 236.581 39.621 236.692 46.374 A 56.079 56.079 0 0 1 236.7 47.3 Z M 488.8 26.3 L 488.8 28.4 Q 487.145 29.01 485.604 30.644 A 13.724 13.724 0 0 0 485.15 31.15 Q 483.674 32.879 482.234 36.636 A 48.441 48.441 0 0 0 481.7 38.1 L 469.2 75.3 L 464.1 87 L 440.1 34 A 27.224 27.224 0 0 0 439.314 32.378 Q 438.048 29.989 436.9 29.3 Q 435.951 28.731 435.162 28.522 A 3.371 3.371 0 0 0 434.3 28.4 L 434.3 26.3 Q 438.3 26.6 442.6 26.75 Q 446.9 26.9 450.6 26.9 Q 455.3 26.9 458.7 26.7 Q 462.1 26.5 465.1 26.3 L 465.1 28.4 A 28.898 28.898 0 0 0 462.72 28.495 A 24.504 24.504 0 0 0 461.7 28.6 A 6.358 6.358 0 0 0 460.871 28.756 Q 460.448 28.868 460.113 29.034 A 2.453 2.453 0 0 0 459.4 29.55 Q 458.735 30.262 459.423 32.012 A 8.545 8.545 0 0 0 459.5 32.2 L 472.3 62.6 L 471.2 63.4 L 476 48.7 A 49.377 49.377 0 0 0 477.053 45.188 Q 478.205 40.707 477.95 37.5 Q 477.717 34.565 476.749 32.587 A 7.663 7.663 0 0 0 475.6 30.85 Q 473.6 28.6 470.6 28.4 L 470.6 26.3 Q 472 26.4 474 26.5 Q 476 26.6 477.95 26.65 Q 479.9 26.7 481.1 26.7 A 77.671 77.671 0 0 0 482.534 26.686 Q 483.8 26.663 485.3 26.6 Q 487.7 26.5 488.8 26.3 Z M 426.5 10.1 L 426.5 26.3 L 436.3 26.3 L 436.3 28.3 L 426.5 28.3 L 426.5 69.8 A 8.179 8.179 0 0 0 426.552 70.761 Q 426.673 71.78 427.074 72.38 A 2.113 2.113 0 0 0 427.2 72.55 Q 427.769 73.241 428.932 73.37 A 5.142 5.142 0 0 0 429.5 73.4 A 4.659 4.659 0 0 0 430.42 73.301 Q 431.186 73.146 432.1 72.75 A 6.405 6.405 0 0 0 433.637 71.792 Q 434.291 71.25 434.9 70.5 L 436.4 71.7 Q 434.3 75.3 430.85 77.45 A 13.54 13.54 0 0 1 426.69 79.128 Q 424.926 79.534 422.878 79.591 A 24.333 24.333 0 0 1 422.2 79.6 A 22.093 22.093 0 0 1 418.97 79.374 A 17.062 17.062 0 0 1 416.25 78.75 Q 413.6 77.9 411.9 76.2 Q 409.7 74 409.1 70.75 A 30.349 30.349 0 0 1 408.758 68.285 Q 408.629 66.999 408.565 65.503 A 74.475 74.475 0 0 1 408.5 62.3 L 408.5 28.3 L 400.9 28.3 L 400.9 26.3 L 408.5 26.3 L 408.5 14.5 A 46.446 46.446 0 0 0 413.863 14.204 A 35.987 35.987 0 0 0 418.15 13.45 Q 422.5 12.4 426.5 10.1 Z M 331.5 25.2 L 331.5 68.9 A 22.155 22.155 0 0 0 331.573 70.776 Q 331.803 73.464 332.75 74.6 Q 333.67 75.705 335.594 75.996 A 10.091 10.091 0 0 0 337.1 76.1 L 337.1 78.2 Q 335.569 78.124 332.865 78.018 A 1069.104 1069.104 0 0 0 331.1 77.95 Q 327.1 77.8 322.9 77.8 Q 318.7 77.8 314.4 77.95 Q 310.1 78.1 307.9 78.2 L 307.9 76.1 Q 309.648 76.1 310.808 75.623 A 3.633 3.633 0 0 0 312.25 74.6 Q 313.5 73.1 313.5 68.9 L 313.5 37.2 Q 313.5 32.7 312.3 30.55 A 3.956 3.956 0 0 0 309.785 28.632 Q 309.058 28.43 308.167 28.404 A 9.156 9.156 0 0 0 307.9 28.4 L 307.9 26.3 A 67.314 67.314 0 0 0 313.347 26.596 A 60.756 60.756 0 0 0 314.1 26.6 Q 319.1 26.6 323.45 26.25 A 83.552 83.552 0 0 0 328.386 25.711 A 66.919 66.919 0 0 0 331.5 25.2 Z M 469.2 75.3 L 466.4 76.3 L 462.9 87.2 Q 461.6 91.3 459.1 93.25 Q 456.6 95.2 453.4 95.2 Q 452.8 95.2 451.8 95.15 A 36.021 36.021 0 0 1 451.784 95.149 Q 450.794 95.099 450 95 A 14.708 14.708 0 0 0 450.796 94.718 Q 451.95 94.27 452.86 93.677 A 7.58 7.58 0 0 0 454.95 91.7 A 9.537 9.537 0 0 0 455.91 90.016 A 6.762 6.762 0 0 0 456.5 87.3 Q 456.5 83.6 454.05 81.75 Q 452.461 80.551 450.179 80.129 A 14.756 14.756 0 0 0 447.5 79.9 Q 445.575 79.9 443.975 80.302 A 9.525 9.525 0 0 0 440.4 82 A 8.443 8.443 0 0 0 440.376 82.019 Q 438.876 83.194 438.217 84.806 A 7.314 7.314 0 0 0 437.7 87.6 A 9.647 9.647 0 0 0 437.793 88.962 A 6.768 6.768 0 0 0 439.95 93.15 A 12.636 12.636 0 0 0 441.444 94.319 A 13.81 13.81 0 0 0 445.35 96.1 A 25.185 25.185 0 0 0 447.758 96.666 A 19.78 19.78 0 0 0 451.3 97 Q 453.735 97 455.499 96.697 A 11.821 11.821 0 0 0 457.15 96.3 A 17.094 17.094 0 0 0 457.904 96.036 Q 458.694 95.737 459.352 95.391 A 8.664 8.664 0 0 0 460.6 94.6 A 8.956 8.956 0 0 0 461.855 93.393 A 11.377 11.377 0 0 0 463.05 91.7 Q 464.1 89.9 465 87.4 L 469.2 75.3 Z M 321.9 0 Q 327.1 0 329.95 2.15 A 6.931 6.931 0 0 1 332.599 6.468 A 10.716 10.716 0 0 1 332.8 8.6 A 10.276 10.276 0 0 1 332.493 11.191 A 6.842 6.842 0 0 1 329.95 15.05 Q 327.726 16.728 324.072 17.096 A 21.664 21.664 0 0 1 321.9 17.2 Q 316.7 17.2 313.85 15.05 A 6.931 6.931 0 0 1 311.201 10.733 A 10.716 10.716 0 0 1 311 8.6 A 10.276 10.276 0 0 1 311.307 6.01 A 6.842 6.842 0 0 1 313.85 2.15 Q 316.074 0.473 319.728 0.104 A 21.664 21.664 0 0 1 321.9 0 Z"></path>
        </g>
    </g>
</svg>